<?xml version="1.0" encoding="UTF-8" standalone="no"?>
<svg
   xmlns:dc="http://purl.org/dc/elements/1.1/"
   xmlns:cc="http://creativecommons.org/ns#"
   xmlns:rdf="http://www.w3.org/1999/02/22-rdf-syntax-ns#"
   xmlns:svg="http://www.w3.org/2000/svg"
   xmlns="http://www.w3.org/2000/svg"
   viewBox="0 0 198.72 101.93333"
   height="101.93333"
   width="198.72"
   xml:space="preserve"
   id="svg2"
   version="1.1"><metadata
     id="metadata8"><rdf:RDF><cc:Work
         rdf:about=""><dc:format>image/svg+xml</dc:format><dc:type
           rdf:resource="http://purl.org/dc/dcmitype/StillImage" /></cc:Work></rdf:RDF></metadata><defs
     id="defs6" /><g
     transform="matrix(1.3333333,0,0,-1.3333333,0,101.93333)"
     id="g10"><g
       transform="scale(0.1)"
       id="g12"><path
         id="path14"
         style="fill:#4f4c4c;fill-opacity:1;fill-rule:nonzero;stroke:none"
         d="m 1069.53,241.719 h -30 V 583.34 h 30 V 241.719" /><path
         id="path16"
         style="fill:#4f4c4c;fill-opacity:1;fill-rule:nonzero;stroke:none"
         d="m 1301.15,598.34 c -65.26,0 -122.66,-33.891 -155.82,-84.922 v 69.922 h -30 V 241.719 h 30 V 412.52 c 0,85.918 69.9,155.82 155.82,155.82 85.92,0 155.8,-69.902 155.8,-155.82 V 241.719 h 30 V 412.52 c 0,102.46 -83.34,185.82 -185.8,185.82" /><path
         id="path18"
         style="fill:#4f4c4c;fill-opacity:1;fill-rule:nonzero;stroke:none"
         d="m 191.602,598.34 c -65.258,0 -122.6606,-33.891 -155.8207,-84.922 V 583.34 H 5.78125 V 241.719 H 35.7813 V 412.52 c 0,85.918 69.9027,155.82 155.8207,155.82 23.242,0 45.586,-4.992 66.406,-14.824 l 12.812,27.129 c -24.863,11.738 -51.523,17.695 -79.218,17.695" /><path
         id="path20"
         style="fill:#4f4c4c;fill-opacity:1;fill-rule:nonzero;stroke:none"
         d="m 827.09,226.719 c -102.481,0 -185.86,83.359 -185.86,185.801 v 351.972 h 30 V 412.52 c 0,-85.911 69.922,-155.801 155.86,-155.801 85.937,0 155.84,69.89 155.84,155.801 0,85.918 -69.903,155.82 -155.84,155.82 -44.746,0 -87.363,-19.238 -116.914,-52.774 l -22.52,19.832 c 35.254,39.993 86.074,62.942 139.434,62.942 102.461,0 185.84,-83.36 185.84,-185.82 0,-102.442 -83.379,-185.801 -185.84,-185.801" /><path
         id="path22"
         style="fill:#4f4c4c;fill-opacity:1;fill-rule:nonzero;stroke:none"
         d="m 438.281,568.301 c -85.918,0 -155.801,-69.903 -155.801,-155.821 0,-85.917 69.883,-155.82 155.801,-155.82 85.918,0 155.821,69.903 155.821,155.82 0,85.918 -69.903,155.821 -155.821,155.821 z m 0,-341.641 c -102.461,0 -185.801,83.36 -185.801,185.82 0,102.461 83.34,185.821 185.801,185.821 102.461,0 185.821,-83.36 185.821,-185.821 0,-102.46 -83.36,-185.82 -185.821,-185.82" /><path
         id="path24"
         style="fill:#66c993;fill-opacity:1;fill-rule:nonzero;stroke:none"
         d="m 556.055,464.141 -119.422,-119.414 -91.098,91.113 21.86,21.836 69.238,-69.258 103.191,103.168 c -23.711,30.926 -60.918,50.949 -102.898,50.949 -71.653,0 -129.731,-58.082 -129.731,-129.722 0,-71.653 58.078,-129.727 129.731,-129.727 71.648,0 129.722,58.074 129.722,129.727 0,18.242 -3.796,35.585 -10.593,51.328" /><path
         id="path26"
         style="fill:#ffffff;fill-opacity:1;fill-rule:nonzero;stroke:none"
         d="m 367.395,457.676 -21.86,-21.836 91.098,-91.113 119.422,119.414 c -4.258,9.867 -9.778,19.027 -16.231,27.445 L 436.633,388.418 367.395,457.676" /><path
         id="path28"
         style="fill:#66c993;fill-opacity:1;fill-rule:nonzero;stroke:none"
         d="m 61.4922,110.645 c 33.1562,0 48.2538,-25.0395 48.2538,-48.3091 0,-12.6875 -4.277,-24.4843 -12.0624,-33.2539 -8.75,-9.8554 -21.2578,-15.0586 -36.1914,-15.0586 -27.3594,0 -47.2227,20.3711 -47.2227,48.4375 0,27.9219 19.8633,48.1841 47.2227,48.1841 z M 108.73,100.383 C 98.8281,115.527 81.5039,124.434 61.4922,124.434 26.4336,124.434 0,97.793 0,62.4609 0,26.8555 26.4336,0 61.4922,0 80.918,0 97.5391,8.57422 108.73,24.2383 V 1.91406 h 14.258 V 122.988 H 108.73 v -22.605" /><path
         id="path30"
         style="fill:#66c993;fill-opacity:1;fill-rule:nonzero;stroke:none"
         d="m 262.02,69.9414 -4.227,0.7227 c -14.746,2.5976 -33.098,5.8281 -33.523,20.1562 -0.149,4.3555 1.335,8.1641 4.402,11.3277 5.598,5.782 16.504,9.219 29.187,9.219 h 0.918 c 13.391,0 24.661,-2.07 36.145,-12.1678 l 0.898,-0.8008 8.887,9.4726 -0.918,0.859 c -11.426,10.735 -26.57,16.172 -45,16.172 l -0.859,0.008 c -16.551,0 -30.789,-4.793 -39.063,-13.144 -5.644,-5.711 -8.476,-12.8597 -8.387,-21.2387 0.262,-25.332 25.165,-29.4804 47.137,-33.1445 18.711,-3.0078 38.047,-6.1133 37.598,-22.2461 -0.742,-19.2773 -25.235,-21.3594 -35.723,-21.3594 -18.008,0 -33.867,7.336 -42.414,19.6211 l -0.801,1.1602 -10.496,-9.3242 0.586,-0.9102 C 216.289,9.10156 236.063,0 259.258,0 c 11.504,0 49.101,2.48047 49.972,34.3164 1.2,27.5 -26.789,32.1875 -47.21,35.625" /><path
         id="path32"
         style="fill:#66c993;fill-opacity:1;fill-rule:nonzero;stroke:none"
         d="m 442.5,69.9414 -4.23,0.7227 c -14.747,2.5976 -33.094,5.8281 -33.524,20.1562 -0.137,4.3555 1.348,8.1641 4.414,11.3277 5.586,5.782 16.492,9.219 29.18,9.219 h 0.918 c 13.387,0 24.66,-2.07 36.133,-12.1678 l 0.918,-0.8008 8.879,9.4726 -0.911,0.859 c -11.433,10.735 -26.582,16.172 -45,16.172 l -0.871,0.008 c -16.551,0 -30.789,-4.793 -39.058,-13.144 -5.657,-5.711 -8.469,-12.8597 -8.391,-21.2387 0.254,-25.332 25.156,-29.4804 47.129,-33.1445 18.711,-3.0078 38.066,-6.1133 37.605,-22.2461 -0.742,-19.2773 -25.222,-21.3594 -35.718,-21.3594 -18.02,0 -33.868,7.336 -42.414,19.6211 l -0.801,1.1602 -10.508,-9.3242 0.598,-0.9102 C 396.777,9.10156 416.543,0 439.734,0 c 11.504,0 49.106,2.48047 49.973,34.3164 1.191,27.5 -26.777,32.1875 -47.207,35.625" /><path
         id="path34"
         style="fill:#66c993;fill-opacity:1;fill-rule:nonzero;stroke:none"
         d="M 574.082,1.91406 H 588.34 V 123.469 H 574.082 V 1.91406" /><path
         id="path36"
         style="fill:#66c993;fill-opacity:1;fill-rule:nonzero;stroke:none"
         d="m 729.055,69.9414 -4.231,0.7227 c -14.746,2.5976 -33.094,5.8281 -33.523,20.1562 -0.149,4.3555 1.336,8.1641 4.402,11.3277 5.598,5.782 16.504,9.219 29.192,9.219 h 0.918 c 13.386,0 24.656,-2.07 36.14,-12.1678 l 0.899,-0.8008 8.886,9.4726 -0.918,0.859 c -11.425,10.735 -26.574,16.172 -45,16.172 l -0.859,0.008 c -16.555,0 -30.789,-4.793 -39.063,-13.144 -5.644,-5.711 -8.476,-12.8597 -8.386,-21.2387 0.261,-25.332 25.164,-29.4804 47.136,-33.1445 18.711,-3.0078 38.047,-6.1133 37.598,-22.2461 -0.742,-19.2773 -25.234,-21.3594 -35.723,-21.3594 -18.007,0 -33.867,7.336 -42.414,19.6211 l -0.796,1.1602 -10.5,-9.3242 0.585,-0.9102 C 683.32,9.10156 703.098,0 726.289,0 c 11.504,0 49.102,2.48047 49.973,34.3164 1.199,27.5 -26.789,32.1875 -47.207,35.625" /><path
         id="path38"
         style="fill:#66c993;fill-opacity:1;fill-rule:nonzero;stroke:none"
         d="m 928.555,18.2227 c -6.387,-3.0664 -12.5,-4.6875 -17.703,-4.6875 -17.153,0 -20.598,10 -20.598,26.1132 v 70.9966 h 40.32 v 12.343 h -40.32 v 35.899 L 876.23,157.43 V 122.988 H 851.035 V 110.645 H 876.23 V 39.6484 c 0,-26.8867 10.997,-39.414025 34.622,-39.414025 6.882,0 14.351,2.011715 22.859,6.132815 l 1.062,0.51953 -5.046,11.90238 -1.172,-0.5664" /><path
         id="path40"
         style="fill:#66c993;fill-opacity:1;fill-rule:nonzero;stroke:none"
         d="m 1070.93,110.645 c 33.15,0 48.25,-25.0395 48.25,-48.3091 0,-12.6875 -4.28,-24.4843 -12.06,-33.2539 -8.75,-9.8554 -21.27,-15.0586 -36.19,-15.0586 -27.37,0 -47.23,20.3711 -47.23,48.4375 0,27.9219 19.86,48.1841 47.23,48.1841 z m 47.23,-10.262 c -9.9,15.144 -27.22,24.051 -47.23,24.051 -35.06,0 -61.5,-26.641 -61.5,-61.9731 0,-35.6054 26.44,-62.4609 61.5,-62.4609 19.42,0 36.04,8.57422 47.23,24.2383 V 1.91406 h 14.26 V 122.988 h -14.26 v -22.605" /><path
         id="path42"
         style="fill:#66c993;fill-opacity:1;fill-rule:nonzero;stroke:none"
         d="m 1277.54,125.156 c -17.52,-0.265 -32.2,-7.558 -40.97,-20.176 v 18.008 h -14.02 V 1.91406 h 14.26 V 69.1797 c 0,24.082 16.94,41.7183 40.28,41.9533 h 0.62 c 25.65,0 40.37,-14.5119 40.37,-39.8049 V 1.91406 h 14.25 V 71.582 c 0,32.539 -21.5,53.574 -54.79,53.574" /><path
         id="path44"
         style="fill:#66c993;fill-opacity:1;fill-rule:nonzero;stroke:none"
         d="m 1485.32,18.7891 -1.17,-0.5664 c -6.39,-3.0664 -12.5,-4.6875 -17.7,-4.6875 -17.15,0 -20.6,10 -20.6,26.1132 v 70.9966 h 40.32 v 12.343 h -40.32 v 35.899 l -14.02,-1.457 v -34.442 h -25.2 v -12.343 h 25.2 V 39.6484 c 0,-26.8867 10.99,-39.414025 34.62,-39.414025 6.87,0 14.35,2.011715 22.87,6.132815 l 1.06,0.51953 -5.06,11.90238" /></g></g></svg>